<svg viewBox="0 0 100 100" xmlns="http://www.w3.org/2000/svg">
    <style>
        .glitch-cyan { stroke: #0ff; stroke-width: 1.5; fill: none; }
        .glitch-magenta { stroke: #f0f; stroke-width: 1.5; fill: none; }
    </style>
    <g class="glitch-cyan" transform="translate(-3, 1)">
        <path d="M20 35 L 50 20" />
        <path d="M45 22 L 80 35" />
        <path d="M80 35 L 50 50" />
        <path d="M48 48 L 20 35" />
        <path d="M20 38 V 75" />
        <path d="M20 75 L 50 90" />
        <path d="M50 88 V 50" />
        <path d="M80 35 V 70" />
        <path d="M80 75 L 50 90" />
    </g>
    <g class="glitch-magenta" transform="translate(3, -1)">
        <path d="M20 35 L 50 20" />
        <path d="M55 18 L 80 35" />
        <path d="M80 35 L 50 50" />
        <path d="M52 52 L 20 35" />
        <path d="M20 35 V 72" />
        <path d="M20 75 L 50 90" />
        <path d="M50 90 V 53" />
        <path d="M80 38 V 75" />
        <path d="M80 75 L 48 90" />
    </g>
    <g stroke="#FFFFFF" stroke-width="2.5" fill="none">
        <path d="M20 35 L 45 22.5" />
        <path d="M55 17.5 L 80 35" />
        <path d="M80 35 L 55 47.5" />
        <path d="M45 52.5 L 20 35" />
        <path d="M20 40 V 70" />
        <path d="M20 75 L 45 87.5" />
        <path d="M50 90 V 55" />
        <path d="M80 40 V 70" />
        <path d="M80 75 L 55 87.5" />
    </g>
</svg>